<svg xmlns="http://www.w3.org/2000/svg" viewBox="0 0 489.07 89.95"><defs><style>.cls-1{font-size:41.43px;}.cls-1,.cls-2,.cls-4,.cls-5,.cls-6,.cls-7{fill:#fff;}.cls-1,.cls-2,.cls-5{font-family:AraHamahSahetAlAssi-Regular, Ara Hamah Sahet AlAssi;}.cls-2{font-size:31.41px;}.cls-3{fill:#ea4d4d;}.cls-5{font-size:22.8px;}.cls-6{font-size:27.02px;font-family:LEMONMILK-Light, LEMON MILK;font-weight:300;}.cls-7{font-size:17.71px;font-family:MontserratAlternates-Regular, Montserrat Alternates;}</style></defs><g id="Layer_2" data-name="Layer 2"><g id="Layer_1-2" data-name="Layer 1"><text class="cls-1" transform="translate(3.31 32)">تلسنوك ةساملا</text><text class="cls-2" transform="translate(0 81.75)">هــب قـــثـــت ناـــكـــم</text><polygon class="cls-3" points="257.24 89.76 244.91 85.91 244.99 30.26 257.22 34.3 257.24 89.76"/><polygon class="cls-4" points="207.01 17.93 261.09 0.8 261.08 13.42 206.98 30.26 207.01 17.93"/><polygon class="cls-3" points="219.3 77.63 206.98 73.59 206.98 17.94 219.3 21.98 219.3 77.63"/><polygon class="cls-3" points="236.83 62.03 224.89 58.18 224.89 23.91 236.83 27.76 236.83 62.03"/><polygon class="cls-4" points="264.36 89.95 314.43 73.59 314.43 63.96 264.36 80.33 264.36 89.95"/><polygon class="cls-3" points="261.09 13.32 261.09 0.61 314.43 17.94 314.04 30.45 261.09 13.32"/><polygon class="cls-4" points="264.3 34.27 314.43 18.13 314.5 30.41 264.3 45.86 264.3 34.27"/><polygon class="cls-4" points="264.3 34.27 264.36 89.95 276.49 85.33 276.69 30.45 264.3 34.27"/><text class="cls-5" transform="translate(0 57.67)">ةيسدنهلا لامعلا و تاراشتسلل</text><text class="cls-6" transform="translate(320.01 31.1)">El massa<tspan x="2.25" y="32.43">consult</tspan></text><text class="cls-7" transform="translate(326.14 84.23)">a place you trust.</text></g></g></svg>